<svg width="256" height="26" viewBox="0 0 256 26" fill="none" xmlns="http://www.w3.org/2000/svg">
<path d="M56.4399 15.12H51.0799V21.36H56.6799C58.9999 21.36 60.0799 20.2 60.0799 18.24C60.0799 16.16 59.3199 15.12 56.4399 15.12ZM55.9999 4.92H51.0799V11.52H55.7199C58.0799 11.52 59.3599 10.64 59.3599 8.16C59.3599 5.88 58.4799 4.92 55.9999 4.92ZM45.3199 25V0.999999H55.7999C61.9999 0.999999 64.6399 2.92 64.6399 7.12C64.6399 10.52 62.2399 12.12 58.2399 12.64V13.6C63.6399 13.8 65.6399 14.88 65.6399 18.44C65.6399 22.44 63.1599 25 56.7199 25H45.3199ZM108.971 25L107.451 19.28H98.4912L96.9712 25H91.0512L98.5312 0.999999H107.651L115.131 25H108.971ZM100.291 12.52L99.4912 15.52H106.491L105.691 12.52C105.051 10.16 104.451 7.6 103.971 5.28H102.091C101.571 7.64 100.931 10.12 100.291 12.52ZM156.867 25L151.067 16H147.947V25H142.187V0.999999H147.947V11.36H150.827L156.787 0.999999H163.227V1.8L154.907 13.2L163.427 24.2V25H156.867ZM199.639 25.56C191.919 25.56 187.759 21.16 187.759 12.92C187.759 4.72 192.199 0.439999 199.639 0.439999C207.159 0.439999 211.519 4.72 211.519 12.92C211.519 21.16 207.359 25.56 199.639 25.56ZM199.599 20.84C204.199 20.84 205.759 17.92 205.759 12.92C205.759 7.92 204.239 5.32 199.639 5.32C195.039 5.32 193.519 7.96 193.519 12.92C193.519 17.88 195.079 20.84 199.599 20.84Z" fill="#0F0F0F"/>
<path d="M7.48 9.4C8.62 9.52 9.7 9.58 10.88 9.58C13.28 9.58 15.74 9.38 17.76 8.98V10.52C15.64 10.88 13.22 11.04 10.84 11.04C9.7 11.04 8.66 10.98 7.5 10.9L7.48 9.4ZM14.48 5.82C14.42 6.22 14.38 6.64 14.36 7.02C14.32 7.76 14.3 9.18 14.3 10.36C14.3 13.44 14.6 16.54 14.6 18.62C14.6 20.26 13.84 21.86 11.14 21.86C8.48 21.86 7 20.78 7 18.98C7 17.3 8.48 15.98 11.1 15.98C14.48 15.98 16.82 17.68 18.5 19.2L17.64 20.52C15.52 18.56 13.52 17.2 10.98 17.2C9.48 17.2 8.44 17.86 8.44 18.82C8.44 19.86 9.44 20.4 10.86 20.4C12.56 20.4 13.04 19.54 13.04 18.22C13.04 16.78 12.78 13.02 12.78 10.38C12.78 9.02 12.76 7.74 12.78 7.04C12.78 6.7 12.74 6.18 12.68 5.82H14.48ZM4.62 5.96C4.5 6.3 4.32 6.94 4.26 7.3C3.86 9.16 3.26 13.12 3.26 15.36C3.26 16.34 3.32 17.16 3.48 18.14C3.78 17.24 4.26 16.02 4.62 15.2L5.44 15.84C4.94 17.24 4.2 19.28 4 20.26C3.94 20.54 3.9 20.92 3.92 21.16C3.92 21.36 3.96 21.64 3.98 21.86L2.56 21.98C2.18 20.54 1.82 18.34 1.82 15.64C1.82 12.7 2.48 8.88 2.72 7.22C2.8 6.76 2.86 6.24 2.86 5.8L4.62 5.96ZM16.22 5.16C16.58 5.9 17.12 7.14 17.4 7.96L16.38 8.32C16.08 7.44 15.62 6.24 15.22 5.48L16.22 5.16ZM18.22 4.56C18.6 5.3 19.12 6.52 19.42 7.32L18.4 7.68C18.1 6.78 17.64 5.62 17.24 4.88L18.22 4.56ZM239.977 6.98C241.417 7.14 243.257 7.22 245.277 7.22C247.197 7.22 249.217 7.1 250.657 6.94V8.58C249.297 8.68 247.117 8.82 245.277 8.82C243.277 8.82 241.557 8.74 239.977 8.6V6.98ZM240.777 15.04C240.537 15.82 240.377 16.56 240.377 17.3C240.377 18.84 241.937 19.88 245.137 19.88C247.877 19.88 250.457 19.58 251.977 19.1L251.997 20.82C250.557 21.2 248.017 21.5 245.177 21.5C241.117 21.5 238.757 20.18 238.757 17.66C238.757 16.62 238.977 15.68 239.157 14.88L240.777 15.04Z" fill="#0F0F0F"/>
</svg>
