<svg width="252" height="26" viewBox="0 0 252 26" fill="none" xmlns="http://www.w3.org/2000/svg">
<path d="M55.8376 15.313H50.5822V21.4311H56.0729C58.3476 21.4311 59.4065 20.2937 59.4065 18.372C59.4065 16.3327 58.6613 15.313 55.8376 15.313ZM55.4062 5.31219H50.5822V11.7833H55.1316C57.4455 11.7833 58.7005 10.9205 58.7005 8.4889C58.7005 6.25344 57.8377 5.31219 55.4062 5.31219ZM44.9347 25V1.46875H55.2101C61.289 1.46875 63.8774 3.35125 63.8774 7.46922C63.8774 10.8028 61.5243 12.3716 57.6024 12.8814V13.8227C62.8969 14.0187 64.8579 15.0777 64.8579 18.5681C64.8579 22.49 62.4263 25 56.1121 25H44.9347ZM107.343 25L105.852 19.3917H97.0675L95.5772 25H89.7728L97.1067 1.46875H106.049L113.382 25H107.343ZM98.8323 12.7637L98.048 15.7052H104.911L104.127 12.7637C103.499 10.4498 102.911 7.93984 102.44 5.66516H100.597C100.087 7.97906 99.4598 10.4106 98.8323 12.7637ZM154.303 25L148.617 16.1758H145.557V25H139.91V1.46875H145.557V11.6264H148.381L154.225 1.46875H160.539V2.25312L152.382 13.4305L160.735 24.2156V25H154.303ZM196.239 25.5491C188.67 25.5491 184.591 21.235 184.591 13.1559C184.591 5.11609 188.945 0.919687 196.239 0.919687C203.613 0.919687 207.887 5.11609 207.887 13.1559C207.887 21.235 203.809 25.5491 196.239 25.5491ZM196.2 20.9212C200.71 20.9212 202.24 18.0583 202.24 13.1559C202.24 8.25359 200.75 5.70437 196.239 5.70437C191.729 5.70437 190.239 8.29281 190.239 13.1559C190.239 18.0191 191.769 20.9212 196.2 20.9212Z" fill="#EFEFEF"/>
<path d="M7.83391 9.47031C8.95164 9.58797 10.0105 9.6468 11.1675 9.6468C13.5206 9.6468 15.9326 9.4507 17.9131 9.05852V10.5684C15.8345 10.9214 13.4618 11.0783 11.1283 11.0783C10.0105 11.0783 8.99086 11.0195 7.85352 10.941L7.83391 9.47031ZM14.6972 5.96023C14.6384 6.35242 14.5991 6.76422 14.5795 7.1368C14.5403 7.86234 14.5207 9.25461 14.5207 10.4116C14.5207 13.4314 14.8148 16.4709 14.8148 18.5102C14.8148 20.1182 14.0697 21.687 11.4224 21.687C8.81438 21.687 7.36328 20.628 7.36328 18.8632C7.36328 17.216 8.81438 15.9218 11.3832 15.9218C14.6972 15.9218 16.9915 17.5886 18.6387 19.0789L17.7955 20.3731C15.7169 18.4514 13.7559 17.118 11.2655 17.118C9.79484 17.118 8.77516 17.7651 8.77516 18.7063C8.77516 19.726 9.75563 20.2555 11.1479 20.2555C12.8147 20.2555 13.2853 19.4123 13.2853 18.118C13.2853 16.7062 13.0304 13.0196 13.0304 10.4312C13.0304 9.09773 13.0108 7.84273 13.0304 7.15641C13.0304 6.82305 12.9912 6.3132 12.9323 5.96023H14.6972ZM5.02977 6.0975C4.91211 6.43086 4.73563 7.05836 4.6768 7.41133C4.28461 9.235 3.69633 13.1177 3.69633 15.3139C3.69633 16.2748 3.75516 17.0787 3.91203 18.0396C4.20617 17.1572 4.6768 15.961 5.02977 15.157L5.83375 15.7845C5.34352 17.1572 4.61797 19.1573 4.42188 20.1182C4.36305 20.3927 4.32383 20.7653 4.34344 21.0006C4.34344 21.1967 4.38266 21.4713 4.40227 21.687L3.01 21.8046C2.63742 20.3927 2.28445 18.2357 2.28445 15.5884C2.28445 12.7059 2.93156 8.96047 3.16688 7.33289C3.24531 6.88187 3.30414 6.37203 3.30414 5.94062L5.02977 6.0975ZM16.4032 5.31312C16.7562 6.03867 17.2856 7.25445 17.5602 8.05844L16.5601 8.41141C16.2659 7.54859 15.8149 6.37203 15.4227 5.62687L16.4032 5.31312ZM18.3641 4.72484C18.7367 5.45039 19.2466 6.64656 19.5407 7.43094L18.5406 7.78391C18.2465 6.90148 17.7955 5.76414 17.4033 5.03859L18.3641 4.72484ZM235.79 7.09758C237.202 7.25445 239.006 7.33289 240.986 7.33289C242.869 7.33289 244.849 7.21523 246.261 7.05836V8.66633C244.928 8.76437 242.79 8.90164 240.986 8.90164C239.025 8.90164 237.339 8.8232 235.79 8.68594V7.09758ZM236.574 15.0002C236.339 15.7649 236.182 16.4905 236.182 17.216C236.182 18.7259 237.712 19.7456 240.849 19.7456C243.536 19.7456 246.065 19.4515 247.555 18.9809L247.575 20.6673C246.163 21.0398 243.673 21.334 240.888 21.334C236.908 21.334 234.594 20.0398 234.594 17.569C234.594 16.5493 234.809 15.6277 234.986 14.8433L236.574 15.0002Z" fill="#EFEFEF"/>
</svg>
