<svg width="128" height="14" viewBox="0 0 128 14" fill="none" xmlns="http://www.w3.org/2000/svg">
<path d="M28.22 8.06H25.54V11.18H28.34C29.5 11.18 30.04 10.6 30.04 9.62C30.04 8.58 29.66 8.06 28.22 8.06ZM28 2.96H25.54V6.26H27.86C29.04 6.26 29.68 5.82 29.68 4.58C29.68 3.44 29.24 2.96 28 2.96ZM22.66 13V1H27.9C31 1 32.32 1.96 32.32 4.06C32.32 5.76 31.12 6.56 29.12 6.82V7.3C31.82 7.4 32.82 7.94 32.82 9.72C32.82 11.72 31.58 13 28.36 13H22.66ZM54.4856 13L53.7256 10.14H49.2456L48.4856 13H45.5256L49.2656 1H53.8256L57.5656 13H54.4856ZM50.1456 6.76L49.7456 8.26H53.2456L52.8456 6.76C52.5256 5.58 52.2256 4.3 51.9856 3.14H51.0456C50.7856 4.32 50.4656 5.56 50.1456 6.76ZM78.4336 13L75.5336 8.5H73.9736V13H71.0936V1H73.9736V6.18H75.4136L78.3936 1H81.6136V1.4L77.4536 7.1L81.7136 12.6V13H78.4336ZM99.8193 13.28C95.9593 13.28 93.8793 11.08 93.8793 6.96C93.8793 2.86 96.0993 0.72 99.8193 0.72C103.579 0.72 105.759 2.86 105.759 6.96C105.759 11.08 103.679 13.28 99.8193 13.28ZM99.7993 10.92C102.099 10.92 102.879 9.46 102.879 6.96C102.879 4.46 102.119 3.16 99.8193 3.16C97.5193 3.16 96.7593 4.48 96.7593 6.96C96.7593 9.44 97.5393 10.92 99.7993 10.92Z" fill="#0F0F0F"/>
<path d="M3.73997 5.2C4.30997 5.26 4.84997 5.29 5.43997 5.29C6.63997 5.29 7.86997 5.19 8.87997 4.99V5.76C7.81997 5.94 6.60997 6.02 5.41997 6.02C4.84997 6.02 4.32997 5.99 3.74997 5.95L3.73997 5.2ZM7.23997 3.41C7.20997 3.61 7.18997 3.82 7.17997 4.01C7.15997 4.38 7.14997 5.09 7.14997 5.68C7.14997 7.22 7.29997 8.77 7.29997 9.81C7.29997 10.63 6.91997 11.43 5.56997 11.43C4.23997 11.43 3.49997 10.89 3.49997 9.99C3.49997 9.15 4.23997 8.49 5.54997 8.49C7.23997 8.49 8.40997 9.34 9.24997 10.1L8.81997 10.76C7.75997 9.78 6.75997 9.1 5.48997 9.1C4.73997 9.1 4.21997 9.43 4.21997 9.91C4.21997 10.43 4.71997 10.7 5.42997 10.7C6.27997 10.7 6.51997 10.27 6.51997 9.61C6.51997 8.89 6.38997 7.01 6.38997 5.69C6.38997 5.01 6.37997 4.37 6.38997 4.02C6.38997 3.85 6.36997 3.59 6.33997 3.41H7.23997ZM2.30997 3.48C2.24997 3.65 2.15997 3.97 2.12997 4.15C1.92997 5.08 1.62997 7.06 1.62997 8.18C1.62997 8.67 1.65997 9.08 1.73997 9.57C1.88997 9.12 2.12997 8.51 2.30997 8.1L2.71997 8.42C2.46997 9.12 2.09997 10.14 1.99997 10.63C1.96997 10.77 1.94997 10.96 1.95997 11.08C1.95997 11.18 1.97997 11.32 1.98997 11.43L1.27997 11.49C1.08997 10.77 0.90997 9.67 0.90997 8.32C0.90997 6.85 1.23997 4.94 1.35997 4.11C1.39997 3.88 1.42997 3.62 1.42997 3.4L2.30997 3.48ZM8.10997 3.08C8.28997 3.45 8.55997 4.07 8.69997 4.48L8.18997 4.66C8.03997 4.22 7.80997 3.62 7.60997 3.24L8.10997 3.08ZM9.10997 2.78C9.29997 3.15 9.55997 3.76 9.70997 4.16L9.19997 4.34C9.04997 3.89 8.81997 3.31 8.61997 2.94L9.10997 2.78ZM119.988 3.99C120.708 4.07 121.628 4.11 122.638 4.11C123.598 4.11 124.608 4.05 125.328 3.97V4.79C124.648 4.84 123.558 4.91 122.638 4.91C121.638 4.91 120.778 4.87 119.988 4.8V3.99ZM120.388 8.02C120.268 8.41 120.188 8.78 120.188 9.15C120.188 9.92 120.968 10.44 122.568 10.44C123.938 10.44 125.228 10.29 125.988 10.05L125.998 10.91C125.278 11.1 124.008 11.25 122.588 11.25C120.558 11.25 119.378 10.59 119.378 9.33C119.378 8.81 119.488 8.34 119.578 7.94L120.388 8.02Z" fill="#0F0F0F"/>
</svg>
